<?xml version="1.0" encoding="UTF-8" standalone="no"?>
<!DOCTYPE svg PUBLIC "-//W3C//DTD SVG 1.1//EN" "http://www.w3.org/Graphics/SVG/1.1/DTD/svg11.dtd">
<svg version="1.1" xmlns="http://www.w3.org/2000/svg" xmlns:xlink="http://www.w3.org/1999/xlink" preserveAspectRatio="xMidYMid meet" viewBox="0 0 640 640" width="640" height="640"><defs><path d="M-777.89 285.85C-765.2 263.93 -663.74 88.59 -651.06 66.67C-638.05 46.5 -616.59 34.15 -592.52 32.85C-567.15 32.85 -364.23 32.85 -338.86 32.85C-314.8 34.15 -293.33 46.5 -280.33 66.67C-267.64 88.65 -166.18 264.52 -153.5 286.5C-143.09 307.97 -143.09 332.68 -153.5 354.15C-166.18 376.07 -267.64 551.41 -280.33 573.33C-293.33 593.5 -314.8 605.85 -338.86 607.15C-364.23 607.15 -567.15 607.15 -592.52 607.15C-616.59 605.85 -638.05 593.5 -651.06 573.33C-659.51 558.68 -701.79 485.4 -777.89 353.5C-784.82 322.71 -784.82 300.16 -777.89 285.85Z" id="bzcTWAOw5"></path><path d="M320 35.77C163.03 35.77 35.77 163.03 35.77 320C35.77 476.97 163.03 604.23 320 604.23C476.97 604.23 604.23 476.97 604.23 320C604.23 163.03 476.97 35.77 320 35.77Z" id="aj0pExtFB"></path></defs><g><g><g><use xlink:href="#bzcTWAOw5" opacity="1" fill="#14bf98" fill-opacity="1"></use><g><use xlink:href="#bzcTWAOw5" opacity="1" fill-opacity="0" stroke="#000000" stroke-width="1" stroke-opacity="0"></use></g></g><g><use xlink:href="#aj0pExtFB" opacity="1" fill="#795571" fill-opacity="1"></use><g><use xlink:href="#aj0pExtFB" opacity="1" fill-opacity="0" stroke="#000000" stroke-width="1" stroke-opacity="0"></use></g></g></g></g></svg>