<?xml version="1.0" encoding="utf-8"?>
<!-- Generator: Adobe Illustrator 19.0.0, SVG Export Plug-In . SVG Version: 6.00 Build 0)  -->
<svg version="1.1" id="Layer_2" xmlns="http://www.w3.org/2000/svg" xmlns:xlink="http://www.w3.org/1999/xlink" x="0px" y="0px"
	 viewBox="-1747 1796.3 134 38" style="enable-background:new -1747 1796.3 134 38;" xml:space="preserve">
<style type="text/css">
	.st0{fill:#FF1A82;}
	.st1{fill:#ADEA65;}
	.st2{fill:#E55A61;}
	.st3{fill:#F8B723;}
	.st4{fill:#0C94E2;}
	.st5{fill:#FFFFFF;}
</style>
<title>logo</title>
<path class="st0" d="M-1731.1,1798.1h2.3c1.4,0,2.4,0.6,3.1,1.8v1.2c-0.4,0.7-0.8,1-1.2,1c-0.1,0-0.8-0.2-2-0.6
	c-3.7,0-7.2,2.5-10.4,7.6c-1,1.2-1.7,4.4-2.3,9.6v0.2c0,4.5,1.8,7.2,5.3,8.2c1.5,0.4,2.6,0.6,3.3,0.6h0.8c2.9,0,4.3-0.9,4.3-2.7
	c0.1-4.6,0.2-7.6,0.2-8.8c-2.3-0.2-3.5-0.6-3.5-1.2v-1.4c0-0.2,0.3-0.5,1-1c3.8,0,5.7,0.5,5.7,1.4c0.1,0,0.2,0.2,0.4,0.6l-0.6,10.8
	c0.1,0.5,0.2,1.2,0.2,2.3c0,1.6-2.5,2.8-7.4,3.5h-1.2c-4.5,0-8.1-1.8-10.6-5.5c-0.8-2-1.2-4.1-1.2-6.1v-0.8c0-7.8,2.5-13.5,7.6-17.2
	C-1735.4,1799.8-1733.3,1798.6-1731.1,1798.1z"/>
<path class="st1" d="M-1719.8,1802.4c0.7,0,1.3,0.5,1.6,1.4c0,4.6-0.1,13.4-0.4,26.4l-1,0.8h-1.2c-0.2,0-0.6-0.5-1.2-1.4
	c0.3-6.5,0.4-13.5,0.4-21.1c0-0.3,0.1-1.3,0.2-3.1c-0.1,0-0.2-0.7-0.2-2C-1720.9,1802.8-1720.3,1802.4-1719.8,1802.4z"/>
<path class="st2" d="M-1708.9,1797.9h0.6c1.3,0,2.6,5.2,3.9,15.5c0,0.9,0.2,6.6,0.6,17l-1,0.8h-1.2c-0.8,0-1.2-1.3-1.2-3.9v-0.2
	c0-0.2-0.2-0.4-0.6-0.6h-0.4c-0.6,0-1.1,0.1-1.6,0.2l-1-0.2c-1.6,0-2.5,0.7-2.5,2c0,1-0.5,1.8-1.6,2.7h-1c-0.8-0.5-1.2-1.1-1.2-1.6
	l6.3-30C-1710.3,1798.4-1709.7,1797.9-1708.9,1797.9z M-1712.2,1822.9l0.6,0.4h1.6c1.2,0,2-0.2,2.5-0.6l-0.2-2.5v-1.8
	c-0.2-7.1-0.6-10.6-1.2-10.6c-0.3,0-1.2,3.5-2.5,10.6L-1712.2,1822.9z"/>
<path class="st3" d="M-1700,1798.4h1.4c1.4,1.5,2.9,3.9,4.5,7.2c0.7,1.7,1.4,4.1,2.3,7.2h0.2c0.3,0,0.4-0.2,0.4-0.6
	c0-8.7,0.3-13.1,0.8-13.1l0.8-0.6h0.6c0.8,0,1.3,0.4,1.6,1.2c-0.9,20.6-1.5,30.9-2,30.9l-0.6,0.4h-1.4c-0.9,0-1.5-2.5-1.8-7.4
	c-1.4-7.8-2.7-13.4-4.1-16.6h-0.2c-0.1,0.3-0.2,0.5-0.2,0.6c0,1,0.1,1.5,0.2,1.6c-0.7,12.3-1,19.1-1,20.4c-0.4,1-1,1.4-1.8,1.4
	c-1.1-0.3-1.6-0.9-1.6-1.6c0.7-12.4,1-19.1,1-20.2c0-0.2-0.1-1.2-0.2-2.9c0.1-2,0.2-4.3,0.2-6.8
	C-1700.8,1798.9-1700.5,1798.6-1700,1798.4z"/>
<path class="st4" d="M-1682.9,1801.1h5.9c1.1,0,2,0.5,2.7,1.4v1.4c-0.4,0.7-0.9,1-1.6,1c-0.9-0.3-1.5-0.4-1.8-0.4h-2.7
	c-0.3,0-0.4,0.2-0.4,0.4v4.7c0,1.2-0.1,3-0.2,5.5l0.6,0.4h2c0.7,0.3,1,1,1,1.8c0,1.1-1.2,1.6-3.7,1.6c0,0.3-0.1,0.4-0.4,0.4
	c-0.1,2.5-0.2,4.4-0.2,5.5v2.9l0.4,0.6c1.1-0.3,2.2-0.4,3.5-0.4h0.2c0.8,0.5,1.2,1.1,1.2,1.6c0,1.4-1.4,2-4.1,2c0,0.3-1,0.4-2.9,0.4
	c-0.8,0-1.5-0.5-2-1.6c0.1-1,0.2-1.5,0.2-1.6c0-3.6,0.3-9.8,0.8-18.6v-1c0-0.5,0.1-0.8,0.2-1c-0.1-0.6-0.3-2.4-0.4-5.3
	C-1684.6,1802.8-1684,1802.1-1682.9,1801.1z"/>
<path class="st5" d="M-1669.9,1800.4c3.2,0,5.5,1.6,7.2,4.7c0.4,1.2,0.6,2.4,0.6,3.7c0,2-1.2,4.3-3.5,6.9v0.4l3.7,4.5
	c0.8,1.5,1.2,3,1.2,4.3v2c0,2.8-2.7,4.7-8.2,5.7c0,0.1-0.1,0.2-0.4,0.2c-2.3,0-3.5-0.7-3.5-2c0.1-2.7,0.2-4.8,0.2-6.1v-18
	c0-4.1,0.6-6.1,1.8-6.1C-1670.6,1800.6-1670.3,1800.6-1669.9,1800.4z M-1669,1804.6v3.1c0,0.5-0.1,0.8-0.2,1l0.2,1.2v3.1
	c0,0.3,0.2,0.4,0.4,0.4c1.1-0.4,2.1-1.9,3.1-4.5v-0.4c-0.3-2.9-1.3-4.3-3.1-4.3C-1668.9,1804.4-1669,1804.4-1669,1804.6z
	 M-1668.8,1818.4l-0.2,0.4v6.7c0,0.7-0.1,1.7-0.2,3.1l0.6,0.4c2.3,0,3.9-1,4.7-2.9v-0.2c0-2.3-1.4-4.8-4.3-7.4
	C-1668.5,1818.4-1668.7,1818.4-1668.8,1818.4z"/>
<path class="st5" d="M-1651.6,1797.9h0.6c1.3,0,2.6,5.2,3.9,15.5c0,0.9,0.2,6.6,0.6,17l-1,0.8h-1.2c-0.8,0-1.2-1.3-1.2-3.9v-0.2
	c0-0.2-0.2-0.4-0.6-0.6h-0.4c-0.6,0-1.1,0.1-1.6,0.2l-1-0.2c-1.6,0-2.5,0.7-2.5,2c0,1-0.5,1.8-1.6,2.7h-1c-0.8-0.5-1.2-1.1-1.2-1.6
	l6.3-30C-1653,1798.4-1652.3,1797.9-1651.6,1797.9z M-1654.9,1822.9l0.6,0.4h1.6c1.2,0,2-0.2,2.5-0.6l-0.2-2.5v-1.8
	c-0.2-7.1-0.6-10.6-1.2-10.6c-0.3,0-1.2,3.5-2.5,10.6L-1654.9,1822.9z"/>
<path class="st5" d="M-1641.5,1800.4c3.2,0,5.5,1.6,7.2,4.7c0.4,1.2,0.6,2.4,0.6,3.7c0,2-1.2,4.3-3.5,6.9v0.4l3.7,4.5
	c0.8,1.5,1.2,3,1.2,4.3v2c0,2.8-2.7,4.7-8.2,5.7c0,0.1-0.1,0.2-0.4,0.2c-2.3,0-3.5-0.7-3.5-2c0.1-2.7,0.2-4.8,0.2-6.1v-18
	c0-4.1,0.6-6.1,1.8-6.1C-1642.2,1800.6-1641.9,1800.6-1641.5,1800.4z M-1640.6,1804.6v3.1c0,0.5-0.1,0.8-0.2,1l0.2,1.2v3.1
	c0,0.3,0.2,0.4,0.4,0.4c1.1-0.4,2.1-1.9,3.1-4.5v-0.4c-0.3-2.9-1.3-4.3-3.1-4.3C-1640.5,1804.4-1640.6,1804.4-1640.6,1804.6z
	 M-1640.4,1818.4l-0.2,0.4v6.7c0,0.7-0.1,1.7-0.2,3.1l0.6,0.4c2.3,0,3.9-1,4.7-2.9v-0.2c0-2.3-1.4-4.8-4.3-7.4
	C-1640.1,1818.4-1640.3,1818.4-1640.4,1818.4z"/>
<path class="st5" d="M-1617.3,1798.9h1.2c0.2,0,0.5,0.3,1,1v0.6c0,3.5-1.7,8.5-5.1,14.9c-0.7,0.6-1.3,1.6-1.8,3.1l0.2,2v7
	c0,0.5,0.1,1.1,0.2,1.8c0,0.5-0.4,1.1-1.2,1.6h-1.2l-1-0.8c-0.1-3.2-0.2-5.6-0.2-7.2v-5.3c0-0.3-0.5-1.3-1.4-3.1
	c-2.2-5.5-3.3-10-3.3-13.5c0.4-1,1-1.4,1.6-1.4c1.4,0,2,1.5,2,4.5c1,3.9,1.9,6.8,2.9,8.8h0.2c1.4-1.3,2.9-4.7,4.5-10.4
	C-1618.4,1800.1-1618,1798.9-1617.3,1798.9z"/>
</svg>
